<?xml version="1.0" encoding="UTF-8" standalone="no"?>
<!-- Created with Inkscape (http://www.inkscape.org/) -->

<svg
   width="123.57565mm"
   height="22.522181mm"
   viewBox="0 0 123.57565 22.522181"
   version="1.1"
   id="svg161"
   inkscape:version="1.1.1 (1:1.1+202109281949+c3084ef5ed)"
   sodipodi:docname="1.svg"
   xmlns:inkscape="http://www.inkscape.org/namespaces/inkscape"
   xmlns:sodipodi="http://sodipodi.sourceforge.net/DTD/sodipodi-0.dtd"
   xmlns="http://www.w3.org/2000/svg"
   xmlns:svg="http://www.w3.org/2000/svg">
  <sodipodi:namedview
     id="namedview163"
     pagecolor="#ffffff"
     bordercolor="#666666"
     borderopacity="1.0"
     inkscape:pageshadow="2"
     inkscape:pageopacity="0.0"
     inkscape:pagecheckerboard="0"
     inkscape:document-units="mm"
     showgrid="false"
     fit-margin-top="1"
     fit-margin-left="1"
     fit-margin-right="1"
     fit-margin-bottom="1"
     inkscape:zoom="1.8116734"
     inkscape:cx="20.423107"
     inkscape:cy="89.144101"
     inkscape:window-width="1786"
     inkscape:window-height="987"
     inkscape:window-x="705"
     inkscape:window-y="1583"
     inkscape:window-maximized="0"
     inkscape:current-layer="layer1" />
  <defs
     id="defs158" />
  <g
     inkscape:label="Layer 1"
     inkscape:groupmode="layer"
     id="layer1"
     transform="translate(-184.40403,-92.007347)">
    <text
       transform="scale(0.91722408,1.0902461)"
       class="st39 st40"
       id="text442"
       style="font-size:23.9909px;font-family:Futura-Bold;stroke-width:0.242682"
       x="200.5546"
       y="103.53604">Soc alGene</text>
    <path
       class="st41"
       d="m 228.31476,94.493773 c 1.47373,0 2.667,1.164166 2.667,2.600854 0,1.436687 -1.19591,2.600854 -2.667,2.600854 -1.5875,0 -2.57175,-1.410229 -2.66171,-2.420938 -0.005,-0.07408 -0.008,-0.134937 -0.005,-0.179916 0.0185,-1.037167 0.97896,-2.600854 2.667,-2.600854 z"
       id="path444"
       style="fill:none;stroke:#000000;stroke-width:0.643573;stroke-miterlimit:10" />
    <path
       class="st42"
       d="m 225.60808,99.542022 c -1.28853,2.172228 0.0106,5.405438 2.52941,6.744228 1.905,1.01071 3.43165,5.09588 3.11679,7.14375"
       id="path446"
       style="fill:none;stroke:#000000;stroke-width:0.754221;stroke-miterlimit:10" />
    <path
       class="st42"
       d="m 225.12389,113.43 c -0.59002,-2.15635 0.59531,-5.82612 3.0136,-7.14375 2.16694,-1.17739 3.81265,-4.67254 3.11679,-6.744228"
       id="path448"
       style="fill:none;stroke:#000000;stroke-width:0.754221;stroke-miterlimit:10" />
    <g
       id="g460"
       transform="matrix(0.26458333,0,0,0.26458333,143.41791,82.804481)">
      <line
         x1="310.89999"
         y1="68.599998"
         x2="325.56"
         y2="68.599998"
         id="line450" />
      <g
         id="g458">
        <line
           class="st43"
           x1="312.39999"
           y1="68.599998"
           x2="325.56"
           y2="68.599998"
           id="line452" />
        <g
           id="g456">
          <polygon
             points="312.63,70.33 310.9,68.6 312.63,66.87 "
             id="polygon454" />
        </g>
      </g>
    </g>
    <rect
       x="226.16899"
       y="100.53421"
       class="st44"
       width="4.519083"
       height="0.84402084"
       id="rect462"
       style="stroke:#000000;stroke-width:0.078105;stroke-miterlimit:10" />
    <g
       id="g474"
       transform="matrix(0.26458333,0,0,0.26458333,143.41791,82.804481)">
      <line
         x1="322.54001"
         y1="73.599998"
         x2="317.39999"
         y2="73.599998"
         id="line464" />
      <g
         id="g472">
        <line
           class="st43"
           x1="321.04001"
           y1="73.599998"
           x2="317.39999"
           y2="73.599998"
           id="line466" />
        <g
           id="g470">
          <polygon
             points="320.81,71.87 322.54,73.6 320.81,75.33 "
             id="polygon468" />
        </g>
      </g>
    </g>
    <rect
       x="-228.28883"
       y="-102.6992"
       transform="scale(-1)"
       class="st45"
       width="2.2013333"
       height="0.84402084"
       id="rect476"
       style="stroke:#000000;stroke-width:0.0545306;stroke-miterlimit:10" />
    <g
       id="g488"
       transform="matrix(0.26458333,0,0,0.26458333,143.41791,82.804481)">
      <line
         x1="314.16"
         y1="78.169998"
         x2="319.88"
         y2="78.169998"
         id="line478" />
      <g
         id="g486">
        <line
           class="st43"
           x1="315.66"
           y1="78.169998"
           x2="319.88"
           y2="78.169998"
           id="line480" />
        <g
           id="g484">
          <polygon
             points="315.89,79.9 314.16,78.17 315.89,76.44 "
             id="polygon482" />
        </g>
      </g>
    </g>
    <rect
       x="226.99449"
       y="103.06628"
       class="st46"
       width="2.5611668"
       height="0.84402084"
       id="rect490"
       style="stroke:#000000;stroke-width:0.0588169;stroke-miterlimit:10" />
    <g
       id="g502"
       transform="matrix(0.26458333,0,0,0.26458333,143.41791,82.804481)">
      <line
         x1="328.06"
         y1="108.16"
         x2="313.39999"
         y2="108.16"
         id="line492" />
      <g
         id="g500">
        <line
           class="st43"
           x1="326.56"
           y1="108.16"
           x2="313.39999"
           y2="108.16"
           id="line494" />
        <g
           id="g498">
          <polygon
             points="326.32,106.43 328.06,108.16 326.32,109.9 "
             id="polygon496" />
        </g>
      </g>
    </g>
    <rect
       x="-229.72427"
       y="-111.84361"
       transform="scale(-1)"
       class="st47"
       width="3.7121041"
       height="0.84402084"
       id="rect504"
       style="stroke:#000000;stroke-width:0.0708025;stroke-miterlimit:10" />
    <g
       id="g516"
       transform="matrix(0.26458333,0,0,0.26458333,143.41791,82.804481)">
      <line
         x1="313.20001"
         y1="102.32"
         x2="318.34"
         y2="102.32"
         id="line506" />
      <g
         id="g514">
        <line
           class="st43"
           x1="314.70001"
           y1="102.32"
           x2="318.34"
           y2="102.32"
           id="line508" />
        <g
           id="g512">
          <polygon
             points="314.93,104.05 313.2,102.32 314.93,100.59 "
             id="polygon510" />
        </g>
      </g>
    </g>
    <rect
       x="226.77753"
       y="109.45332"
       class="st48"
       width="2.8178124"
       height="0.84402084"
       id="rect518"
       style="stroke:#000000;stroke-width:0.0616744;stroke-miterlimit:10" />
    <g
       id="g530"
       transform="matrix(0.26458333,0,0,0.26458333,143.41791,82.804481)">
      <line
         x1="324.53"
         y1="97"
         x2="318.79999"
         y2="97"
         id="line520" />
      <g
         id="g528">
        <line
           class="st43"
           x1="323.03"
           y1="97"
           x2="318.79999"
           y2="97"
           id="line522" />
        <g
           id="g526">
          <polygon
             points="322.8,95.27 324.53,97 322.8,98.73 "
             id="polygon524" />
        </g>
      </g>
    </g>
    <rect
       x="-228.82869"
       y="-108.89168"
       transform="scale(-1)"
       class="st49"
       width="1.698625"
       height="0.84402084"
       id="rect532"
       style="stroke:#000000;stroke-width:0.0478896;stroke-miterlimit:10" />
    <g
       id="g544"
       transform="matrix(0.26458333,0,0,0.26458333,143.41791,82.804481)">
      <line
         x1="329.51999"
         y1="113.49"
         x2="318.70999"
         y2="113.49"
         id="line534" />
      <g
         id="g542">
        <line
           class="st43"
           x1="328.01999"
           y1="113.49"
           x2="318.70999"
           y2="113.49"
           id="line536" />
        <g
           id="g540">
          <polygon
             points="327.79,111.76 329.52,113.49 327.79,115.23 "
             id="polygon538" />
        </g>
      </g>
    </g>
    <rect
       x="-230.11043"
       y="-113.25416"
       transform="scale(-1)"
       class="st50"
       width="2.4659166"
       height="0.84402084"
       id="rect546"
       style="stroke:#000000;stroke-width:0.0576792;stroke-miterlimit:10" />
    <g
       id="g558"
       transform="matrix(0.26458333,0,0,0.26458333,143.41791,82.804481)">
      <line
         x1="317.57001"
         y1="113.5"
         x2="311.84"
         y2="113.5"
         id="line548" />
      <g
         id="g556">
        <line
           class="st43"
           x1="316.07001"
           y1="113.5"
           x2="311.84"
           y2="113.5"
           id="line550" />
        <g
           id="g554">
          <polygon
             points="315.83,111.77 317.57,113.5 315.83,115.23 "
             id="polygon552" />
        </g>
      </g>
    </g>
    <rect
       x="-226.98473"
       y="-113.25524"
       transform="scale(-1)"
       class="st51"
       width="1.0609792"
       height="0.84402084"
       id="rect560"
       style="stroke:#000000;stroke-width:0.0378354;stroke-miterlimit:10" />
    <g
       id="g572"
       transform="matrix(0.26458333,0,0,0.26458333,143.41791,82.804481)">
      <line
         x1="329.09"
         y1="73.610001"
         x2="323.95001"
         y2="73.610001"
         id="line562" />
      <g
         id="g570">
        <line
           class="st43"
           x1="327.60001"
           y1="73.610001"
           x2="323.95001"
           y2="73.610001"
           id="line564" />
        <g
           id="g568">
          <polygon
             points="327.36,71.87 329.09,73.61 327.36,75.34 "
             id="polygon566" />
        </g>
      </g>
    </g>
    <rect
       x="-230.02365"
       y="-102.70027"
       transform="scale(-1)"
       class="st52"
       width="1.1006666"
       height="0.84402084"
       id="rect574"
       style="stroke:#000000;stroke-width:0.0385498;stroke-miterlimit:10" />
    <g
       id="g586"
       transform="matrix(0.26458333,0,0,0.26458333,143.41791,82.804481)">
      <line
         x1="323.82001"
         y1="82.709999"
         x2="318.67999"
         y2="82.709999"
         id="line576" />
      <g
         id="g584">
        <line
           class="st43"
           x1="322.32001"
           y1="82.709999"
           x2="318.67999"
           y2="82.709999"
           id="line578" />
        <g
           id="g582">
          <polygon
             points="322.09,80.98 323.82,82.71 322.09,84.44 "
             id="polygon580" />
        </g>
      </g>
    </g>
    <rect
       x="-228.62811"
       y="-105.10934"
       transform="scale(-1)"
       class="st52"
       width="1.1006666"
       height="0.84402084"
       id="rect588"
       style="stroke:#000000;stroke-width:0.0385498;stroke-miterlimit:10" />
  </g>
</svg>
