<?xml version="1.0" encoding="UTF-8" standalone="no"?>
<!-- Generator: Adobe Illustrator 25.1.0, SVG Export Plug-In . SVG Version: 6.00 Build 0)  -->

<svg
   xmlns:dc="http://purl.org/dc/elements/1.1/"
   xmlns:cc="http://creativecommons.org/ns#"
   xmlns:rdf="http://www.w3.org/1999/02/22-rdf-syntax-ns#"
   xmlns:svg="http://www.w3.org/2000/svg"
   xmlns="http://www.w3.org/2000/svg"
   xmlns:sodipodi="http://sodipodi.sourceforge.net/DTD/sodipodi-0.dtd"
   xmlns:inkscape="http://www.inkscape.org/namespaces/inkscape"
   version="1.1"
   id="Layer_1"
   x="0px"
   y="0px"
   viewBox="0 0 841.89 595.28"
   style="enable-background:new 0 0 841.89 595.28;"
   xml:space="preserve"
   sodipodi:docname="logos.svg"
   inkscape:version="0.92.5 (2060ec1f9f, 2020-04-08)"><metadata
   id="metadata595"><rdf:RDF><cc:Work
       rdf:about=""><dc:format>image/svg+xml</dc:format><dc:type
         rdf:resource="http://purl.org/dc/dcmitype/StillImage" /></cc:Work></rdf:RDF></metadata><defs
   id="defs593" /><sodipodi:namedview
   pagecolor="#ffffff"
   bordercolor="#666666"
   borderopacity="1"
   objecttolerance="10"
   gridtolerance="10"
   guidetolerance="10"
   inkscape:pageopacity="0"
   inkscape:pageshadow="2"
   inkscape:window-width="3768"
   inkscape:window-height="2089"
   id="namedview591"
   showgrid="false"
   showguides="false"
   inkscape:guide-bbox="true"
   inkscape:zoom="1.4142136"
   inkscape:cx="834.94847"
   inkscape:cy="338.94765"
   inkscape:window-x="72"
   inkscape:window-y="1004"
   inkscape:window-maximized="1"
   inkscape:current-layer="Layer_1"><sodipodi:guide
     position="1305.8446,-395.16174"
     orientation="0,1"
     id="guide5443"
     inkscape:locked="false" /><sodipodi:guide
     position="1305.8446,-759.88047"
     orientation="0,1"
     id="guide5445"
     inkscape:locked="false" /><sodipodi:guide
     position="-200.98528,-63.001247"
     orientation="1,0"
     inkscape:locked="false"
     id="guide5558" /><sodipodi:guide
     position="-99.435738,-49.945208"
     orientation="1,0"
     id="guide5560"
     inkscape:locked="false" /><sodipodi:guide
     position="-89.935753,-59.445181"
     orientation="1,0"
     id="guide5564"
     inkscape:locked="false" /><sodipodi:guide
     position="-172.98611,-69.791663"
     orientation="0,1"
     id="guide5566"
     inkscape:locked="false" /><sodipodi:guide
     position="-176.31944,-89.166663"
     orientation="0,1"
     id="guide5568"
     inkscape:locked="false" /><sodipodi:guide
     position="-82.127505,-70.808884"
     orientation="1,0"
     id="guide5588"
     inkscape:locked="false" /></sodipodi:namedview>
<style
   type="text/css"
   id="style2">
	.st0{fill:none;stroke:#F7941D;stroke-width:13.344;stroke-miterlimit:10;}
	.st1{fill:none;stroke:#F7941D;stroke-width:15.6383;stroke-miterlimit:10;}
	.st2{fill:#FBB040;}
	.st3{fill:none;stroke:#FBB040;stroke-width:1.5638;stroke-miterlimit:10;}
	.st4{fill:#FBB040;stroke:#FBB040;stroke-width:1.6196;stroke-miterlimit:10;}
	.st5{fill:#FBB040;stroke:#FBB040;stroke-width:1.1305;stroke-miterlimit:10;}
	.st6{fill:#FBB040;stroke:#FBB040;stroke-width:1.2194;stroke-miterlimit:10;}
	.st7{fill:#FBB040;stroke:#FBB040;stroke-width:1.4678;stroke-miterlimit:10;}
	.st8{fill:#FBB040;stroke:#FBB040;stroke-width:1.2787;stroke-miterlimit:10;}
	.st9{fill:#FBB040;stroke:#FBB040;stroke-width:0.9931;stroke-miterlimit:10;}
	.st10{fill:#FBB040;stroke:#FBB040;stroke-width:1.1962;stroke-miterlimit:10;}
	.st11{fill:#FBB040;stroke:#FBB040;stroke-width:0.7846;stroke-miterlimit:10;}
	.st12{fill:#FBB040;stroke:#FBB040;stroke-width:0.7994;stroke-miterlimit:10;}
	.st13{fill:none;stroke:#39B54A;stroke-width:13.344;stroke-miterlimit:10;}
	.st14{fill:none;stroke:#39B54A;stroke-width:15.6383;stroke-miterlimit:10;}
	.st15{fill:#8DC63F;}
	.st16{fill:none;stroke:#8DC63F;stroke-width:1.5638;stroke-miterlimit:10;}
	.st17{fill:#8DC63F;stroke:#8DC63F;stroke-width:1.6196;stroke-miterlimit:10;}
	.st18{fill:#8DC63F;stroke:#8DC63F;stroke-width:1.1305;stroke-miterlimit:10;}
	.st19{fill:#8DC63F;stroke:#8DC63F;stroke-width:1.2194;stroke-miterlimit:10;}
	.st20{fill:#8DC63F;stroke:#8DC63F;stroke-width:1.4678;stroke-miterlimit:10;}
	.st21{fill:#8DC63F;stroke:#8DC63F;stroke-width:1.2787;stroke-miterlimit:10;}
	.st22{fill:#8DC63F;stroke:#8DC63F;stroke-width:0.9931;stroke-miterlimit:10;}
	.st23{fill:#8DC63F;stroke:#8DC63F;stroke-width:1.1962;stroke-miterlimit:10;}
	.st24{fill:#8DC63F;stroke:#8DC63F;stroke-width:0.7846;stroke-miterlimit:10;}
	.st25{fill:#8DC63F;stroke:#8DC63F;stroke-width:0.7994;stroke-miterlimit:10;}
	.st26{fill:none;stroke:#1C75BC;stroke-width:13.344;stroke-miterlimit:10;}
	.st27{fill:none;stroke:#1C75BC;stroke-width:15.6383;stroke-miterlimit:10;}
	.st28{fill:#27AAE1;}
	.st29{fill:none;stroke:#27AAE1;stroke-width:1.5638;stroke-miterlimit:10;}
	.st30{fill:#27AAE1;stroke:#27AAE1;stroke-width:1.6196;stroke-miterlimit:10;}
	.st31{fill:#27AAE1;stroke:#27AAE1;stroke-width:1.1305;stroke-miterlimit:10;}
	.st32{fill:#27AAE1;stroke:#27AAE1;stroke-width:1.2194;stroke-miterlimit:10;}
	.st33{fill:#27AAE1;stroke:#27AAE1;stroke-width:1.4678;stroke-miterlimit:10;}
	.st34{fill:#27AAE1;stroke:#27AAE1;stroke-width:1.2787;stroke-miterlimit:10;}
	.st35{fill:#27AAE1;stroke:#27AAE1;stroke-width:0.9931;stroke-miterlimit:10;}
	.st36{fill:#27AAE1;stroke:#27AAE1;stroke-width:1.1962;stroke-miterlimit:10;}
	.st37{fill:#27AAE1;stroke:#27AAE1;stroke-width:0.7846;stroke-miterlimit:10;}
	.st38{fill:#27AAE1;stroke:#27AAE1;stroke-width:0.7994;stroke-miterlimit:10;}
	.st39{font-family:'Futura-Bold';}
	.st40{font-size:98.8574px;}
	.st41{fill:none;stroke:#000000;stroke-width:2.4324;stroke-miterlimit:10;}
	.st42{fill:none;stroke:#000000;stroke-width:2.8506;stroke-miterlimit:10;}
	.st43{fill:none;stroke:#000000;stroke-width:0.2851;stroke-miterlimit:10;}
	.st44{stroke:#000000;stroke-width:0.2952;stroke-miterlimit:10;}
	.st45{stroke:#000000;stroke-width:0.2061;stroke-miterlimit:10;}
	.st46{stroke:#000000;stroke-width:0.2223;stroke-miterlimit:10;}
	.st47{stroke:#000000;stroke-width:0.2676;stroke-miterlimit:10;}
	.st48{stroke:#000000;stroke-width:0.2331;stroke-miterlimit:10;}
	.st49{stroke:#000000;stroke-width:0.181;stroke-miterlimit:10;}
	.st50{stroke:#000000;stroke-width:0.218;stroke-miterlimit:10;}
	.st51{stroke:#000000;stroke-width:0.143;stroke-miterlimit:10;}
	.st52{stroke:#000000;stroke-width:0.1457;stroke-miterlimit:10;}
</style>
<path
   class="st0"
   d="M246.43,185.91c30.55,0,55.32,24.13,55.32,53.9c0,29.77-24.77,53.9-55.32,53.9c-32.9,0-53.35-29.22-55.19-50.18  c-0.14-1.55-0.15-2.8-0.13-3.72C191.53,218.32,211.41,185.91,246.43,185.91z"
   id="path4" />
<path
   class="st1"
   d="M190.32,290.59c-26.71,45.06,0.21,112.08,52.43,139.81c39.48,20.96,71.17,105.66,64.63,148.1"
   id="path6" />
<path
   class="st1"
   d="M180.27,578.5c-12.21-44.72,12.34-120.82,62.48-148.1c44.92-24.44,79.06-96.89,64.64-139.81"
   id="path8" />




















<path
   class="st13"
   d="M399.22,145.34c30.55,0,55.32,24.13,55.32,53.9s-24.77,53.9-55.32,53.9c-32.9,0-53.35-29.22-55.19-50.18  c-0.14-1.55-0.15-2.8-0.13-3.72C344.32,177.74,364.21,145.34,399.22,145.34z"
   id="path150" />
<path
   class="st14"
   d="M343.11,250.02c-26.71,45.06,0.21,112.08,52.43,139.81c39.48,20.96,71.17,105.66,64.63,148.1"
   id="path152" />
<path
   class="st14"
   d="M333.07,537.93c-12.21-44.72,12.34-120.82,62.48-148.1c44.92-24.44,79.06-96.89,64.64-139.81"
   id="path154" />




















<path
   class="st26"
   d="M553.78,184.12c30.55,0,55.32,24.13,55.32,53.9c0,29.77-24.77,53.9-55.32,53.9  c-32.9,0-53.35-29.22-55.19-50.18c-0.14-1.55-0.15-2.8-0.13-3.72C498.88,216.52,518.76,184.12,553.78,184.12z"
   id="path296" />
<path
   class="st27"
   d="M497.67,288.8c-26.71,45.06,0.21,112.08,52.43,139.81c39.48,20.96,71.17,105.66,64.64,148.1"
   id="path298" />
<path
   class="st27"
   d="M487.62,576.71c-12.21-44.72,12.34-120.82,62.48-148.1c44.92-24.44,79.06-96.89,64.64-139.81"
   id="path300" />




















<text
   transform="matrix(0.8413 0 0 1 153.2054 113.6704)"
   class="st39 st40"
   id="text442">Soc alGene</text>

<path
   class="st41"
   d="M320.87,44.18c5.57,0,10.08,4.4,10.08,9.83c0,5.43-4.52,9.83-10.08,9.83c-6,0-9.72-5.33-10.06-9.15  c-0.02-0.28-0.03-0.51-0.02-0.68C310.86,50.09,314.49,44.18,320.87,44.18z"
   id="path444" />
<path
   class="st42"
   d="M310.64,63.26c-4.87,8.21,0.04,20.43,9.56,25.49c7.2,3.82,12.97,19.26,11.78,27"
   id="path446" />
<path
   class="st42"
   d="M308.81,115.75c-2.23-8.15,2.25-22.02,11.39-27c8.19-4.45,14.41-17.66,11.78-25.49"
   id="path448" />
<g
   id="g460">
	<line
   x1="310.9"
   y1="68.6"
   x2="325.56"
   y2="68.6"
   id="line450" />
	<g
   id="g458">
		<line
   class="st43"
   x1="312.4"
   y1="68.6"
   x2="325.56"
   y2="68.6"
   id="line452" />
		<g
   id="g456">
			<polygon
   points="312.63,66.87 312.63,70.33 310.9,68.6    "
   id="polygon454" />
		</g>
	</g>
</g>
<rect
   x="312.76"
   y="67.01"
   class="st44"
   width="17.08"
   height="3.19"
   id="rect462" />
<g
   id="g474">
	<line
   x1="322.54"
   y1="73.6"
   x2="317.4"
   y2="73.6"
   id="line464" />
	<g
   id="g472">
		<line
   class="st43"
   x1="321.04"
   y1="73.6"
   x2="317.4"
   y2="73.6"
   id="line466" />
		<g
   id="g470">
			<polygon
   points="320.81,75.33 320.81,71.87 322.54,73.6    "
   id="polygon468" />
		</g>
	</g>
</g>
<rect
   x="312.46"
   y="72.01"
   transform="matrix(-1 -1.513773e-10 1.513773e-10 -1 633.232 147.2026)"
   class="st45"
   width="8.32"
   height="3.19"
   id="rect476" />
<g
   id="g488">
	<line
   x1="314.16"
   y1="78.17"
   x2="319.88"
   y2="78.17"
   id="line478" />
	<g
   id="g486">
		<line
   class="st43"
   x1="315.66"
   y1="78.17"
   x2="319.88"
   y2="78.17"
   id="line480" />
		<g
   id="g484">
			<polygon
   points="315.89,76.44 315.89,79.9 314.16,78.17    "
   id="polygon482" />
		</g>
	</g>
</g>
<rect
   x="315.88"
   y="76.58"
   class="st46"
   width="9.68"
   height="3.19"
   id="rect490" />
<g
   id="g502">
	<line
   x1="328.06"
   y1="108.16"
   x2="313.4"
   y2="108.16"
   id="line492" />
	<g
   id="g500">
		<line
   class="st43"
   x1="326.56"
   y1="108.16"
   x2="313.4"
   y2="108.16"
   id="line494" />
		<g
   id="g498">
			<polygon
   points="326.32,109.9 326.32,106.43 328.06,108.16    "
   id="polygon496" />
		</g>
	</g>
</g>
<rect
   x="312.16"
   y="106.57"
   transform="matrix(-1 -8.973323e-11 8.973323e-11 -1 638.3573 216.3242)"
   class="st47"
   width="14.03"
   height="3.19"
   id="rect504" />
<g
   id="g516">
	<line
   x1="313.2"
   y1="102.32"
   x2="318.34"
   y2="102.32"
   id="line506" />
	<g
   id="g514">
		<line
   class="st43"
   x1="314.7"
   y1="102.32"
   x2="318.34"
   y2="102.32"
   id="line508" />
		<g
   id="g512">
			<polygon
   points="314.93,100.59 314.93,104.05 313.2,102.32    "
   id="polygon510" />
		</g>
	</g>
</g>
<rect
   x="315.06"
   y="100.72"
   class="st48"
   width="10.65"
   height="3.19"
   id="rect518" />
<g
   id="g530">
	<line
   x1="324.53"
   y1="97"
   x2="318.8"
   y2="97"
   id="line520" />
	<g
   id="g528">
		<line
   class="st43"
   x1="323.03"
   y1="97"
   x2="318.8"
   y2="97"
   id="line522" />
		<g
   id="g526">
			<polygon
   points="322.8,98.73 322.8,95.27 324.53,97    "
   id="polygon524" />
		</g>
	</g>
</g>
<rect
   x="316.39"
   y="95.4"
   transform="matrix(-1 -8.965952e-11 8.965952e-11 -1 639.2024 193.9973)"
   class="st49"
   width="6.42"
   height="3.19"
   id="rect532" />
<g
   id="g544">
	<line
   x1="329.52"
   y1="113.49"
   x2="318.71"
   y2="113.49"
   id="line534" />
	<g
   id="g542">
		<line
   class="st43"
   x1="328.02"
   y1="113.49"
   x2="318.71"
   y2="113.49"
   id="line536" />
		<g
   id="g540">
			<polygon
   points="327.79,115.23 327.79,111.76 329.52,113.49    "
   id="polygon538" />
		</g>
	</g>
</g>
<rect
   x="318.34"
   y="111.9"
   transform="matrix(-1 -1.353128e-10 1.353128e-10 -1 645.9968 226.9854)"
   class="st50"
   width="9.32"
   height="3.19"
   id="rect546" />
<g
   id="g558">
	<line
   x1="317.57"
   y1="113.5"
   x2="311.84"
   y2="113.5"
   id="line548" />
	<g
   id="g556">
		<line
   class="st43"
   x1="316.07"
   y1="113.5"
   x2="311.84"
   y2="113.5"
   id="line550" />
		<g
   id="g554">
			<polygon
   points="315.83,115.23 315.83,111.77 317.57,113.5    "
   id="polygon552" />
		</g>
	</g>
</g>
<rect
   x="311.84"
   y="111.9"
   transform="matrix(-1 -1.438677e-10 1.438677e-10 -1 627.6831 226.9895)"
   class="st51"
   width="4.01"
   height="3.19"
   id="rect560" />
<g
   id="g572">
	<line
   x1="329.09"
   y1="73.61"
   x2="323.95"
   y2="73.61"
   id="line562" />
	<g
   id="g570">
		<line
   class="st43"
   x1="327.6"
   y1="73.61"
   x2="323.95"
   y2="73.61"
   id="line564" />
		<g
   id="g568">
			<polygon
   points="327.36,75.34 327.36,71.87 329.09,73.61    "
   id="polygon566" />
		</g>
	</g>
</g>
<rect
   x="323.17"
   y="72.01"
   transform="matrix(-1 -3.027544e-10 3.027544e-10 -1 650.4988 147.2067)"
   class="st52"
   width="4.16"
   height="3.19"
   id="rect574" />
<g
   id="g586">
	<line
   x1="323.82"
   y1="82.71"
   x2="318.68"
   y2="82.71"
   id="line576" />
	<g
   id="g584">
		<line
   class="st43"
   x1="322.32"
   y1="82.71"
   x2="318.68"
   y2="82.71"
   id="line578" />
		<g
   id="g582">
			<polygon
   points="322.09,84.44 322.09,80.98 323.82,82.71    "
   id="polygon580" />
		</g>
	</g>
</g>
<rect
   x="317.9"
   y="81.11"
   transform="matrix(-1 -3.029733e-10 3.029733e-10 -1 639.9543 165.4118)"
   class="st52"
   width="4.16"
   height="3.19"
   id="rect588" />
<g
   id="Ebene_1-6-4"
   transform="matrix(0.12103985,0,0,-0.05336042,177.05638,326.8848)"
   style="fill:#fbb040;fill-opacity:1"><path
     d="M 190.23083,183.4491 268.71726,-0.1626778 909.71671,1.5393466e-5 V 364.71876 l -640.99945,0.11503 z"
     id="path2050-1-7"
     inkscape:connector-curvature="0"
     sodipodi:nodetypes="cccccc"
     style="fill:#fbb040;fill-opacity:1" /></g><g
   id="Ebene_1-6-1-6"
   transform="matrix(-0.12103985,0,0,-0.05336042,315.94387,353.28098)"
   style="fill:#fbb040;fill-opacity:1"><path
     inkscape:connector-curvature="0"
     style="fill:#fbb040;fill-opacity:1;stroke-width:0.08036627"
     d="M 105.29297,779.29102 81,779.29297 v 19.47265 l 24.29297,0.002 9.5,-9.79688 z"
     transform="matrix(-8.2617419,0,0,-18.740482,1138.6229,14969.139)"
     id="path2050-1-5-3" /></g><g
   id="Ebene_1-6-9-1-5"
   transform="matrix(-0.12103985,0,0,-0.05336042,280.54726,353.28094)"
   style="fill:#fbb040;fill-opacity:1"><path
     inkscape:connector-curvature="0"
     style="fill:#fbb040;fill-opacity:1;stroke-width:0.08036627"
     d="M 45.292969,820.29102 -6.25,820.29688 v 19.46484 l 51.542969,0.006 9.5,-9.79688 z"
     transform="matrix(-8.2617419,0,0,-18.740482,642.91837,15737.499)"
     id="path2050-1-8-7-9" /></g><g
   id="Ebene_1-6-9-6"
   transform="matrix(0.12103985,0,0,-0.05336042,187.95274,380.96864)"
   style="fill:#fbb040;fill-opacity:1"><path
     inkscape:connector-curvature="0"
     style="fill:#fbb040;fill-opacity:1;stroke-width:0.08036627"
     d="M 45.292969,820.29102 -6.25,820.29688 v 19.46484 l 51.542969,0.006 9.5,-9.79688 z"
     transform="matrix(-8.2617419,0,0,-18.740482,642.91837,15737.499)"
     id="path2050-1-8-2" /></g><g
   id="Ebene_1-6-1-1"
   transform="matrix(-0.12103985,0,0,-0.05336042,286.42226,408.01026)"
   style="fill:#fbb040;fill-opacity:1"><path
     inkscape:connector-curvature="0"
     style="fill:#fbb040;fill-opacity:1;stroke-width:0.08036627"
     d="M 105.29297,779.29102 81,779.29297 v 19.47265 l 24.29297,0.002 9.5,-9.79688 z"
     transform="matrix(-8.2617419,0,0,-18.740482,1138.6229,14969.139)"
     id="path2050-1-5-7" /></g><g
   id="Ebene_1-6-4-8"
   transform="matrix(-0.12103985,0,0,-0.05336042,305.56875,541.67619)"
   style="fill:#fbb040;fill-opacity:1"><path
     d="M 190.23083,183.4491 268.71726,-0.1626778 909.71671,1.5393466e-5 V 364.71876 l -640.99945,0.11503 z"
     id="path2050-1-7-5"
     inkscape:connector-curvature="0"
     sodipodi:nodetypes="cccccc"
     style="fill:#fbb040;fill-opacity:1" /></g><g
   id="Ebene_1-6-1-6-7"
   transform="matrix(-0.12103985,0,0,-0.05336042,251.42226,569.76028)"
   style="fill:#fbb040;fill-opacity:1"><path
     inkscape:connector-curvature="0"
     style="fill:#fbb040;fill-opacity:1;stroke-width:0.08036627"
     d="M 105.29297,779.29102 81,779.29297 v 19.47265 l 24.29297,0.002 9.5,-9.79688 z"
     transform="matrix(-8.2617419,0,0,-18.740482,1138.6229,14969.139)"
     id="path2050-1-5-3-4" /></g><g
   id="Ebene_1-6-9-1-5-1"
   transform="matrix(-0.12103985,0,0,-0.05336042,315.04726,569.76025)"
   style="fill:#fbb040;fill-opacity:1"><path
     inkscape:connector-curvature="0"
     style="fill:#fbb040;fill-opacity:1;stroke-width:0.08036627"
     d="M 45.292969,820.29102 -6.25,820.29688 v 19.46484 l 51.542969,0.006 9.5,-9.79688 z"
     transform="matrix(-8.2617419,0,0,-18.740482,642.91837,15737.499)"
     id="path2050-1-8-7-9-8" /></g><g
   id="Ebene_1-6-9-6-5"
   transform="matrix(0.12103985,0,0,-0.05336042,184.45274,513.34355)"
   style="fill:#fbb040;fill-opacity:1"><path
     inkscape:connector-curvature="0"
     style="fill:#fbb040;fill-opacity:1;stroke-width:0.08036627"
     d="M 45.292969,820.29102 -6.25,820.29688 v 19.46484 l 51.542969,0.006 9.5,-9.79688 z"
     transform="matrix(-8.2617419,0,0,-18.740482,642.91837,15737.499)"
     id="path2050-1-8-2-9" /></g><g
   id="Ebene_1-6-1-6-75"
   transform="matrix(-0.12103985,0,0,-0.05336042,283.92226,485.01026)"
   style="fill:#fbb040;fill-opacity:1"><path
     inkscape:connector-curvature="0"
     style="fill:#fbb040;fill-opacity:1;stroke-width:0.08036627"
     d="M 105.29297,779.29102 81,779.29297 v 19.47265 l 24.29297,0.002 9.5,-9.79688 z"
     transform="matrix(-8.2617419,0,0,-18.740482,1138.6229,14969.139)"
     id="path2050-1-5-3-3" /></g><g
   id="Ebene_1-6-4-88"
   transform="matrix(0.12103985,0,0,-0.05336042,328.85807,283.94711)"
   style="fill:#8dc63f;fill-opacity:1"><path
     d="M 190.23083,183.4491 268.71726,-0.1626778 909.71671,1.5393466e-5 V 364.71876 l -640.99945,0.11503 z"
     id="path2050-1-7-3"
     inkscape:connector-curvature="0"
     sodipodi:nodetypes="cccccc"
     style="fill:#8dc63f;fill-opacity:1" /></g><g
   id="Ebene_1-6-1-6-1"
   transform="matrix(-0.12103985,0,0,-0.05336042,467.74556,310.34329)"
   style="fill:#8dc63f;fill-opacity:1"><path
     inkscape:connector-curvature="0"
     style="fill:#8dc63f;fill-opacity:1;stroke-width:0.08036627"
     d="M 105.29297,779.29102 81,779.29297 v 19.47265 l 24.29297,0.002 9.5,-9.79688 z"
     transform="matrix(-8.2617419,0,0,-18.740482,1138.6229,14969.139)"
     id="path2050-1-5-3-8" /></g><g
   id="Ebene_1-6-9-1-5-9"
   transform="matrix(-0.12103985,0,0,-0.05336042,432.34895,310.34325)"
   style="fill:#8dc63f;fill-opacity:1"><path
     inkscape:connector-curvature="0"
     style="fill:#8dc63f;fill-opacity:1;stroke-width:0.08036627"
     d="M 45.292969,820.29102 -6.25,820.29688 v 19.46484 l 51.542969,0.006 9.5,-9.79688 z"
     transform="matrix(-8.2617419,0,0,-18.740482,642.91837,15737.499)"
     id="path2050-1-8-7-9-6" /></g><g
   id="Ebene_1-6-9-6-4"
   transform="matrix(0.12103985,0,0,-0.05336042,339.75443,338.03095)"
   style="fill:#8dc63f;fill-opacity:1"><path
     inkscape:connector-curvature="0"
     style="fill:#8dc63f;fill-opacity:1;stroke-width:0.08036627"
     d="M 45.292969,820.29102 -6.25,820.29688 v 19.46484 l 51.542969,0.006 9.5,-9.79688 z"
     transform="matrix(-8.2617419,0,0,-18.740482,642.91837,15737.499)"
     id="path2050-1-8-2-3" /></g><g
   id="Ebene_1-6-1-1-3"
   transform="matrix(-0.12103985,0,0,-0.05336042,438.22395,365.07257)"
   style="fill:#8dc63f;fill-opacity:1"><path
     inkscape:connector-curvature="0"
     style="fill:#8dc63f;fill-opacity:1;stroke-width:0.08036627"
     d="M 105.29297,779.29102 81,779.29297 v 19.47265 l 24.29297,0.002 9.5,-9.79688 z"
     transform="matrix(-8.2617419,0,0,-18.740482,1138.6229,14969.139)"
     id="path2050-1-5-7-3" /></g><g
   id="Ebene_1-6-4-86"
   transform="matrix(0.12103985,0,0,-0.05336042,484.35807,321.94711)"
   style="fill:#27aae1;fill-opacity:1"><path
     d="M 190.23083,183.4491 268.71726,-0.1626778 909.71671,1.5393466e-5 V 364.71876 l -640.99945,0.11503 z"
     id="path2050-1-7-0"
     inkscape:connector-curvature="0"
     sodipodi:nodetypes="cccccc"
     style="fill:#27aae1;fill-opacity:1" /></g><g
   id="Ebene_1-6-1-6-4"
   transform="matrix(-0.12103985,0,0,-0.05336042,623.24556,348.34329)"
   style="fill:#27aae1;fill-opacity:1"><path
     inkscape:connector-curvature="0"
     style="fill:#27aae1;fill-opacity:1;stroke-width:0.08036627"
     d="M 105.29297,779.29102 81,779.29297 v 19.47265 l 24.29297,0.002 9.5,-9.79688 z"
     transform="matrix(-8.2617419,0,0,-18.740482,1138.6229,14969.139)"
     id="path2050-1-5-3-88" /></g><g
   id="Ebene_1-6-9-1-5-8"
   transform="matrix(-0.12103985,0,0,-0.05336042,587.84895,348.34325)"
   style="fill:#27aae1;fill-opacity:1"><path
     inkscape:connector-curvature="0"
     style="fill:#27aae1;fill-opacity:1;stroke-width:0.08036627"
     d="M 45.292969,820.29102 -6.25,820.29688 v 19.46484 l 51.542969,0.006 9.5,-9.79688 z"
     transform="matrix(-8.2617419,0,0,-18.740482,642.91837,15737.499)"
     id="path2050-1-8-7-9-9" /></g><g
   id="Ebene_1-6-9-6-7"
   transform="matrix(0.12103985,0,0,-0.05336042,495.25443,376.03095)"
   style="fill:#27aae1;fill-opacity:1"><path
     inkscape:connector-curvature="0"
     style="fill:#27aae1;fill-opacity:1;stroke-width:0.08036627"
     d="M 45.292969,820.29102 -6.25,820.29688 v 19.46484 l 51.542969,0.006 9.5,-9.79688 z"
     transform="matrix(-8.2617419,0,0,-18.740482,642.91837,15737.499)"
     id="path2050-1-8-2-7" /></g><g
   id="Ebene_1-6-1-1-6"
   transform="matrix(-0.12103985,0,0,-0.05336042,593.72395,403.07257)"
   style="fill:#27aae1;fill-opacity:1"><path
     inkscape:connector-curvature="0"
     style="fill:#27aae1;fill-opacity:1;stroke-width:0.08036627"
     d="M 105.29297,779.29102 81,779.29297 v 19.47265 l 24.29297,0.002 9.5,-9.79688 z"
     transform="matrix(-8.2617419,0,0,-18.740482,1138.6229,14969.139)"
     id="path2050-1-5-7-4" /></g><g
   id="Ebene_1-6-4-8-3"
   transform="matrix(-0.12103985,0,0,-0.05336042,457.25625,496.30115)"
   style="fill:#8dc63f;fill-opacity:1"><path
     d="M 190.23083,183.4491 268.71726,-0.1626778 909.71671,1.5393466e-5 V 364.71876 l -640.99945,0.11503 z"
     id="path2050-1-7-5-0"
     inkscape:connector-curvature="0"
     sodipodi:nodetypes="cccccc"
     style="fill:#8dc63f;fill-opacity:1" /></g><g
   id="Ebene_1-6-1-6-7-3"
   transform="matrix(-0.12103985,0,0,-0.05336042,403.10976,524.38524)"
   style="fill:#8dc63f;fill-opacity:1"><path
     inkscape:connector-curvature="0"
     style="fill:#8dc63f;fill-opacity:1;stroke-width:0.08036627"
     d="M 105.29297,779.29102 81,779.29297 v 19.47265 l 24.29297,0.002 9.5,-9.79688 z"
     transform="matrix(-8.2617419,0,0,-18.740482,1138.6229,14969.139)"
     id="path2050-1-5-3-4-0" /></g><g
   id="Ebene_1-6-9-1-5-1-9"
   transform="matrix(-0.12103985,0,0,-0.05336042,466.73476,524.38521)"
   style="fill:#8dc63f;fill-opacity:1"><path
     inkscape:connector-curvature="0"
     style="fill:#8dc63f;fill-opacity:1;stroke-width:0.08036627"
     d="M 45.292969,820.29102 -6.25,820.29688 v 19.46484 l 51.542969,0.006 9.5,-9.79688 z"
     transform="matrix(-8.2617419,0,0,-18.740482,642.91837,15737.499)"
     id="path2050-1-8-7-9-8-2" /></g><g
   id="Ebene_1-6-9-6-5-5"
   transform="matrix(0.12103985,0,0,-0.05336042,336.14024,467.96851)"
   style="fill:#8dc63f;fill-opacity:1"><path
     inkscape:connector-curvature="0"
     style="fill:#8dc63f;fill-opacity:1;stroke-width:0.08036627"
     d="M 45.292969,820.29102 -6.25,820.29688 v 19.46484 l 51.542969,0.006 9.5,-9.79688 z"
     transform="matrix(-8.2617419,0,0,-18.740482,642.91837,15737.499)"
     id="path2050-1-8-2-9-4" /></g><g
   id="Ebene_1-6-1-6-75-0"
   transform="matrix(-0.12103985,0,0,-0.05336042,435.60976,439.63522)"
   style="fill:#8dc63f;fill-opacity:1"><path
     inkscape:connector-curvature="0"
     style="fill:#8dc63f;fill-opacity:1;stroke-width:0.08036627"
     d="M 105.29297,779.29102 81,779.29297 v 19.47265 l 24.29297,0.002 9.5,-9.79688 z"
     transform="matrix(-8.2617419,0,0,-18.740482,1138.6229,14969.139)"
     id="path2050-1-5-3-3-5" /></g><g
   id="Ebene_1-6-4-8-9"
   transform="matrix(-0.12103985,0,0,-0.05336042,614.25624,532.30115)"
   style="fill:#27aae1;fill-opacity:1"><path
     d="M 190.23083,183.4491 268.71726,-0.1626778 909.71671,1.5393466e-5 V 364.71876 l -640.99945,0.11503 z"
     id="path2050-1-7-5-4"
     inkscape:connector-curvature="0"
     sodipodi:nodetypes="cccccc"
     style="fill:#27aae1;fill-opacity:1" /></g><g
   id="Ebene_1-6-1-6-7-6"
   transform="matrix(-0.12103985,0,0,-0.05336042,560.10976,560.38524)"
   style="fill:#27aae1;fill-opacity:1"><path
     inkscape:connector-curvature="0"
     style="fill:#27aae1;fill-opacity:1;stroke-width:0.08036627"
     d="M 105.29297,779.29102 81,779.29297 v 19.47265 l 24.29297,0.002 9.5,-9.79688 z"
     transform="matrix(-8.2617419,0,0,-18.740482,1138.6229,14969.139)"
     id="path2050-1-5-3-4-9" /></g><g
   id="Ebene_1-6-9-1-5-1-2"
   transform="matrix(-0.12103985,0,0,-0.05336042,623.73475,560.38521)"
   style="fill:#27aae1;fill-opacity:1"><path
     inkscape:connector-curvature="0"
     style="fill:#27aae1;fill-opacity:1;stroke-width:0.08036627"
     d="M 45.292969,820.29102 -6.25,820.29688 v 19.46484 l 51.542969,0.006 9.5,-9.79688 z"
     transform="matrix(-8.2617419,0,0,-18.740482,642.91837,15737.499)"
     id="path2050-1-8-7-9-8-24" /></g><g
   id="Ebene_1-6-9-6-5-7"
   transform="matrix(0.12103985,0,0,-0.05336042,493.14024,503.96851)"
   style="fill:#27aae1;fill-opacity:1"><path
     inkscape:connector-curvature="0"
     style="fill:#27aae1;fill-opacity:1;stroke-width:0.08036627"
     d="M 45.292969,820.29102 -6.25,820.29688 v 19.46484 l 51.542969,0.006 9.5,-9.79688 z"
     transform="matrix(-8.2617419,0,0,-18.740482,642.91837,15737.499)"
     id="path2050-1-8-2-9-7" /></g><g
   id="Ebene_1-6-1-6-75-5"
   transform="matrix(-0.12103985,0,0,-0.05336042,592.60976,475.63522)"
   style="fill:#27aae1;fill-opacity:1"><path
     inkscape:connector-curvature="0"
     style="fill:#27aae1;fill-opacity:1;stroke-width:0.08036627"
     d="M 105.29297,779.29102 81,779.29297 v 19.47265 l 24.29297,0.002 9.5,-9.79688 z"
     transform="matrix(-8.2617419,0,0,-18.740482,1138.6229,14969.139)"
     id="path2050-1-5-3-3-4" /></g></svg>
