<?xml version="1.0" encoding="UTF-8" standalone="no"?>
<!-- Generator: Adobe Illustrator 25.1.0, SVG Export Plug-In . SVG Version: 6.00 Build 0)  -->

<svg
   version="1.1"
   id="Layer_1"
   x="0px"
   y="0px"
   viewBox="0 0 458.69649 443.89149"
   xml:space="preserve"
   sodipodi:docname="logos.svg"
   inkscape:version="1.1.1 (1:1.1+202109281949+c3084ef5ed)"
   width="458.6965"
   height="443.89151"
   xmlns:inkscape="http://www.inkscape.org/namespaces/inkscape"
   xmlns:sodipodi="http://sodipodi.sourceforge.net/DTD/sodipodi-0.dtd"
   xmlns="http://www.w3.org/2000/svg"
   xmlns:svg="http://www.w3.org/2000/svg"
   xmlns:rdf="http://www.w3.org/1999/02/22-rdf-syntax-ns#"
   xmlns:cc="http://creativecommons.org/ns#"
   xmlns:dc="http://purl.org/dc/elements/1.1/"><metadata
   id="metadata595"><rdf:RDF><cc:Work
       rdf:about=""><dc:format>image/svg+xml</dc:format><dc:type
         rdf:resource="http://purl.org/dc/dcmitype/StillImage" /></cc:Work></rdf:RDF></metadata><defs
   id="defs593" /><sodipodi:namedview
   pagecolor="#ffffff"
   bordercolor="#666666"
   borderopacity="1"
   objecttolerance="10"
   gridtolerance="10"
   guidetolerance="10"
   inkscape:pageopacity="0"
   inkscape:pageshadow="2"
   inkscape:window-width="3768"
   inkscape:window-height="2089"
   id="namedview591"
   showgrid="false"
   showguides="false"
   inkscape:guide-bbox="true"
   inkscape:zoom="1.4142136"
   inkscape:cx="666.80168"
   inkscape:cy="201.17187"
   inkscape:window-x="72"
   inkscape:window-y="1078"
   inkscape:window-maximized="1"
   inkscape:current-layer="Layer_1"
   inkscape:pagecheckerboard="0"
   fit-margin-top="1"
   fit-margin-left="1"
   fit-margin-right="1"
   fit-margin-bottom="1"><sodipodi:guide
     position="-166.74534,-14.384314"
     orientation="0,1"
     id="guide5443"
     inkscape:locked="false" /><sodipodi:guide
     position="-166.74534,-14.996999"
     orientation="0,1"
     id="guide5445"
     inkscape:locked="false" /><sodipodi:guide
     position="-168.53516,-13.826324"
     orientation="1,0"
     inkscape:locked="false"
     id="guide5558" /><sodipodi:guide
     position="-168.41453,-13.804391"
     orientation="1,0"
     id="guide5560"
     inkscape:locked="false" /><sodipodi:guide
     position="-168.40325,-13.82035"
     orientation="1,0"
     id="guide5564"
     inkscape:locked="false" /><sodipodi:guide
     position="-168.5019,-13.837731"
     orientation="0,1"
     id="guide5566"
     inkscape:locked="false" /><sodipodi:guide
     position="-168.50586,-13.870279"
     orientation="0,1"
     id="guide5568"
     inkscape:locked="false" /><sodipodi:guide
     position="-168.39398,-13.83944"
     orientation="1,0"
     id="guide5588"
     inkscape:locked="false" /></sodipodi:namedview>
<style
   type="text/css"
   id="style2">
	.st0{fill:none;stroke:#F7941D;stroke-width:13.344;stroke-miterlimit:10;}
	.st1{fill:none;stroke:#F7941D;stroke-width:15.6383;stroke-miterlimit:10;}
	.st2{fill:#FBB040;}
	.st3{fill:none;stroke:#FBB040;stroke-width:1.5638;stroke-miterlimit:10;}
	.st4{fill:#FBB040;stroke:#FBB040;stroke-width:1.6196;stroke-miterlimit:10;}
	.st5{fill:#FBB040;stroke:#FBB040;stroke-width:1.1305;stroke-miterlimit:10;}
	.st6{fill:#FBB040;stroke:#FBB040;stroke-width:1.2194;stroke-miterlimit:10;}
	.st7{fill:#FBB040;stroke:#FBB040;stroke-width:1.4678;stroke-miterlimit:10;}
	.st8{fill:#FBB040;stroke:#FBB040;stroke-width:1.2787;stroke-miterlimit:10;}
	.st9{fill:#FBB040;stroke:#FBB040;stroke-width:0.9931;stroke-miterlimit:10;}
	.st10{fill:#FBB040;stroke:#FBB040;stroke-width:1.1962;stroke-miterlimit:10;}
	.st11{fill:#FBB040;stroke:#FBB040;stroke-width:0.7846;stroke-miterlimit:10;}
	.st12{fill:#FBB040;stroke:#FBB040;stroke-width:0.7994;stroke-miterlimit:10;}
	.st13{fill:none;stroke:#39B54A;stroke-width:13.344;stroke-miterlimit:10;}
	.st14{fill:none;stroke:#39B54A;stroke-width:15.6383;stroke-miterlimit:10;}
	.st15{fill:#8DC63F;}
	.st16{fill:none;stroke:#8DC63F;stroke-width:1.5638;stroke-miterlimit:10;}
	.st17{fill:#8DC63F;stroke:#8DC63F;stroke-width:1.6196;stroke-miterlimit:10;}
	.st18{fill:#8DC63F;stroke:#8DC63F;stroke-width:1.1305;stroke-miterlimit:10;}
	.st19{fill:#8DC63F;stroke:#8DC63F;stroke-width:1.2194;stroke-miterlimit:10;}
	.st20{fill:#8DC63F;stroke:#8DC63F;stroke-width:1.4678;stroke-miterlimit:10;}
	.st21{fill:#8DC63F;stroke:#8DC63F;stroke-width:1.2787;stroke-miterlimit:10;}
	.st22{fill:#8DC63F;stroke:#8DC63F;stroke-width:0.9931;stroke-miterlimit:10;}
	.st23{fill:#8DC63F;stroke:#8DC63F;stroke-width:1.1962;stroke-miterlimit:10;}
	.st24{fill:#8DC63F;stroke:#8DC63F;stroke-width:0.7846;stroke-miterlimit:10;}
	.st25{fill:#8DC63F;stroke:#8DC63F;stroke-width:0.7994;stroke-miterlimit:10;}
	.st26{fill:none;stroke:#1C75BC;stroke-width:13.344;stroke-miterlimit:10;}
	.st27{fill:none;stroke:#1C75BC;stroke-width:15.6383;stroke-miterlimit:10;}
	.st28{fill:#27AAE1;}
	.st29{fill:none;stroke:#27AAE1;stroke-width:1.5638;stroke-miterlimit:10;}
	.st30{fill:#27AAE1;stroke:#27AAE1;stroke-width:1.6196;stroke-miterlimit:10;}
	.st31{fill:#27AAE1;stroke:#27AAE1;stroke-width:1.1305;stroke-miterlimit:10;}
	.st32{fill:#27AAE1;stroke:#27AAE1;stroke-width:1.2194;stroke-miterlimit:10;}
	.st33{fill:#27AAE1;stroke:#27AAE1;stroke-width:1.4678;stroke-miterlimit:10;}
	.st34{fill:#27AAE1;stroke:#27AAE1;stroke-width:1.2787;stroke-miterlimit:10;}
	.st35{fill:#27AAE1;stroke:#27AAE1;stroke-width:0.9931;stroke-miterlimit:10;}
	.st36{fill:#27AAE1;stroke:#27AAE1;stroke-width:1.1962;stroke-miterlimit:10;}
	.st37{fill:#27AAE1;stroke:#27AAE1;stroke-width:0.7846;stroke-miterlimit:10;}
	.st38{fill:#27AAE1;stroke:#27AAE1;stroke-width:0.7994;stroke-miterlimit:10;}
	.st39{font-family:'Futura-Bold';}
	.st40{font-size:98.8574px;}
	.st41{fill:none;stroke:#000000;stroke-width:2.4324;stroke-miterlimit:10;}
	.st42{fill:none;stroke:#000000;stroke-width:2.8506;stroke-miterlimit:10;}
	.st43{fill:none;stroke:#000000;stroke-width:0.2851;stroke-miterlimit:10;}
	.st44{stroke:#000000;stroke-width:0.2952;stroke-miterlimit:10;}
	.st45{stroke:#000000;stroke-width:0.2061;stroke-miterlimit:10;}
	.st46{stroke:#000000;stroke-width:0.2223;stroke-miterlimit:10;}
	.st47{stroke:#000000;stroke-width:0.2676;stroke-miterlimit:10;}
	.st48{stroke:#000000;stroke-width:0.2331;stroke-miterlimit:10;}
	.st49{stroke:#000000;stroke-width:0.181;stroke-miterlimit:10;}
	.st50{stroke:#000000;stroke-width:0.218;stroke-miterlimit:10;}
	.st51{stroke:#000000;stroke-width:0.143;stroke-miterlimit:10;}
	.st52{stroke:#000000;stroke-width:0.1457;stroke-miterlimit:10;}
</style>
<path
   class="st0"
   d="m 78.13357,48.242 c 30.55,0 55.32,24.13 55.32,53.9 0,29.77 -24.77,53.9 -55.32,53.9 -32.9,0 -53.35,-29.22 -55.19,-50.18 -0.14,-1.55 -0.15,-2.8 -0.13,-3.72 0.42,-21.49 20.3,-53.9 55.32,-53.9 z"
   id="path4" />
<path
   class="st1"
   d="m 22.02357,152.922 c -26.7100003,45.06 0.21,112.08 52.43,139.81 39.48,20.96 71.17,105.66 64.63,148.1"
   id="path6" />
<path
   class="st1"
   d="m 11.97357,440.832 c -12.21000029,-44.72 12.34,-120.82 62.48,-148.1 44.92,-24.44 79.06,-96.89 64.64,-139.81"
   id="path8" />




















<path
   class="st13"
   d="m 230.92357,7.6719999 c 30.55,0 55.32,24.1300001 55.32,53.9000001 0,29.77 -24.77,53.9 -55.32,53.9 -32.9,0 -53.35,-29.22 -55.19,-50.18 -0.14,-1.55 -0.15,-2.8 -0.13,-3.72 0.42,-21.5 20.31,-53.9000001 55.32,-53.9000001 z"
   id="path150" />
<path
   class="st14"
   d="m 174.81357,112.352 c -26.71,45.06 0.21,112.08 52.43,139.81 39.48,20.96 71.17,105.66 64.63,148.1"
   id="path152" />
<path
   class="st14"
   d="m 164.77357,400.262 c -12.21,-44.72 12.34,-120.82 62.48,-148.1 44.92,-24.44 79.06,-96.89 64.64,-139.81"
   id="path154" />




















<path
   class="st26"
   d="m 385.48357,46.452 c 30.55,0 55.32,24.13 55.32,53.9 0,29.77 -24.77,53.9 -55.32,53.9 -32.9,0 -53.35,-29.22 -55.19,-50.18 -0.14,-1.55 -0.15,-2.8 -0.13,-3.72 0.42,-21.5 20.3,-53.9 55.32,-53.9 z"
   id="path296" />
<path
   class="st27"
   d="m 329.37357,151.132 c -26.71,45.06 0.21,112.08 52.43,139.81 39.48,20.96 71.17,105.66 64.64,148.1"
   id="path298" />
<path
   class="st27"
   d="m 319.32357,439.042 c -12.21,-44.72 12.34,-120.82 62.48,-148.1 44.92,-24.44 79.06,-96.89 64.64,-139.81"
   id="path300" />













































<g
   id="Ebene_1-6-4"
   transform="matrix(0.12103985,0,0,-0.05336042,8.7599497,189.2168)"
   style="fill:#fbb040;fill-opacity:1"><path
     d="M 190.23083,183.4491 268.71726,-0.1626778 909.71671,1.5393466e-5 V 364.71876 l -640.99945,0.11503 z"
     id="path2050-1-7"
     inkscape:connector-curvature="0"
     sodipodi:nodetypes="cccccc"
     style="fill:#fbb040;fill-opacity:1" /></g><g
   id="Ebene_1-6-1-6"
   transform="matrix(-0.12103985,0,0,-0.05336042,147.64744,215.61298)"
   style="fill:#fbb040;fill-opacity:1"><path
     inkscape:connector-curvature="0"
     style="fill:#fbb040;fill-opacity:1;stroke-width:0.0803663"
     d="M 105.29297,779.29102 81,779.29297 v 19.47265 l 24.29297,0.002 9.5,-9.79688 z"
     transform="matrix(-8.2617419,0,0,-18.740482,1138.6229,14969.139)"
     id="path2050-1-5-3" /></g><g
   id="Ebene_1-6-9-1-5"
   transform="matrix(-0.12103985,0,0,-0.05336042,112.25083,215.61294)"
   style="fill:#fbb040;fill-opacity:1"><path
     inkscape:connector-curvature="0"
     style="fill:#fbb040;fill-opacity:1;stroke-width:0.0803663"
     d="M 45.292969,820.29102 -6.25,820.29688 v 19.46484 l 51.542969,0.006 9.5,-9.79688 z"
     transform="matrix(-8.2617419,0,0,-18.740482,642.91837,15737.499)"
     id="path2050-1-8-7-9" /></g><g
   id="Ebene_1-6-9-6"
   transform="matrix(0.12103985,0,0,-0.05336042,19.65631,243.30064)"
   style="fill:#fbb040;fill-opacity:1"><path
     inkscape:connector-curvature="0"
     style="fill:#fbb040;fill-opacity:1;stroke-width:0.0803663"
     d="M 45.292969,820.29102 -6.25,820.29688 v 19.46484 l 51.542969,0.006 9.5,-9.79688 z"
     transform="matrix(-8.2617419,0,0,-18.740482,642.91837,15737.499)"
     id="path2050-1-8-2" /></g><g
   id="Ebene_1-6-1-1"
   transform="matrix(-0.12103985,0,0,-0.05336042,118.12583,270.34226)"
   style="fill:#fbb040;fill-opacity:1"><path
     inkscape:connector-curvature="0"
     style="fill:#fbb040;fill-opacity:1;stroke-width:0.0803663"
     d="M 105.29297,779.29102 81,779.29297 v 19.47265 l 24.29297,0.002 9.5,-9.79688 z"
     transform="matrix(-8.2617419,0,0,-18.740482,1138.6229,14969.139)"
     id="path2050-1-5-7" /></g><g
   id="Ebene_1-6-4-8"
   transform="matrix(-0.12103985,0,0,-0.05336042,137.27232,404.00819)"
   style="fill:#fbb040;fill-opacity:1"><path
     d="M 190.23083,183.4491 268.71726,-0.1626778 909.71671,1.5393466e-5 V 364.71876 l -640.99945,0.11503 z"
     id="path2050-1-7-5"
     inkscape:connector-curvature="0"
     sodipodi:nodetypes="cccccc"
     style="fill:#fbb040;fill-opacity:1" /></g><g
   id="Ebene_1-6-1-6-7"
   transform="matrix(-0.12103985,0,0,-0.05336042,83.12583,432.09228)"
   style="fill:#fbb040;fill-opacity:1"><path
     inkscape:connector-curvature="0"
     style="fill:#fbb040;fill-opacity:1;stroke-width:0.0803663"
     d="M 105.29297,779.29102 81,779.29297 v 19.47265 l 24.29297,0.002 9.5,-9.79688 z"
     transform="matrix(-8.2617419,0,0,-18.740482,1138.6229,14969.139)"
     id="path2050-1-5-3-4" /></g><g
   id="Ebene_1-6-9-1-5-1"
   transform="matrix(-0.12103985,0,0,-0.05336042,146.75083,432.09225)"
   style="fill:#fbb040;fill-opacity:1"><path
     inkscape:connector-curvature="0"
     style="fill:#fbb040;fill-opacity:1;stroke-width:0.0803663"
     d="M 45.292969,820.29102 -6.25,820.29688 v 19.46484 l 51.542969,0.006 9.5,-9.79688 z"
     transform="matrix(-8.2617419,0,0,-18.740482,642.91837,15737.499)"
     id="path2050-1-8-7-9-8" /></g><g
   id="Ebene_1-6-9-6-5"
   transform="matrix(0.12103985,0,0,-0.05336042,16.15631,375.67555)"
   style="fill:#fbb040;fill-opacity:1"><path
     inkscape:connector-curvature="0"
     style="fill:#fbb040;fill-opacity:1;stroke-width:0.0803663"
     d="M 45.292969,820.29102 -6.25,820.29688 v 19.46484 l 51.542969,0.006 9.5,-9.79688 z"
     transform="matrix(-8.2617419,0,0,-18.740482,642.91837,15737.499)"
     id="path2050-1-8-2-9" /></g><g
   id="Ebene_1-6-1-6-75"
   transform="matrix(-0.12103985,0,0,-0.05336042,115.62583,347.34226)"
   style="fill:#fbb040;fill-opacity:1"><path
     inkscape:connector-curvature="0"
     style="fill:#fbb040;fill-opacity:1;stroke-width:0.0803663"
     d="M 105.29297,779.29102 81,779.29297 v 19.47265 l 24.29297,0.002 9.5,-9.79688 z"
     transform="matrix(-8.2617419,0,0,-18.740482,1138.6229,14969.139)"
     id="path2050-1-5-3-3" /></g><g
   id="Ebene_1-6-4-88"
   transform="matrix(0.12103985,0,0,-0.05336042,160.56164,146.27911)"
   style="fill:#8dc63f;fill-opacity:1"><path
     d="M 190.23083,183.4491 268.71726,-0.1626778 909.71671,1.5393466e-5 V 364.71876 l -640.99945,0.11503 z"
     id="path2050-1-7-3"
     inkscape:connector-curvature="0"
     sodipodi:nodetypes="cccccc"
     style="fill:#8dc63f;fill-opacity:1" /></g><g
   id="Ebene_1-6-1-6-1"
   transform="matrix(-0.12103985,0,0,-0.05336042,299.44913,172.67529)"
   style="fill:#8dc63f;fill-opacity:1"><path
     inkscape:connector-curvature="0"
     style="fill:#8dc63f;fill-opacity:1;stroke-width:0.0803663"
     d="M 105.29297,779.29102 81,779.29297 v 19.47265 l 24.29297,0.002 9.5,-9.79688 z"
     transform="matrix(-8.2617419,0,0,-18.740482,1138.6229,14969.139)"
     id="path2050-1-5-3-8" /></g><g
   id="Ebene_1-6-9-1-5-9"
   transform="matrix(-0.12103985,0,0,-0.05336042,264.05252,172.67525)"
   style="fill:#8dc63f;fill-opacity:1"><path
     inkscape:connector-curvature="0"
     style="fill:#8dc63f;fill-opacity:1;stroke-width:0.0803663"
     d="M 45.292969,820.29102 -6.25,820.29688 v 19.46484 l 51.542969,0.006 9.5,-9.79688 z"
     transform="matrix(-8.2617419,0,0,-18.740482,642.91837,15737.499)"
     id="path2050-1-8-7-9-6" /></g><g
   id="Ebene_1-6-9-6-4"
   transform="matrix(0.12103985,0,0,-0.05336042,171.458,200.36295)"
   style="fill:#8dc63f;fill-opacity:1"><path
     inkscape:connector-curvature="0"
     style="fill:#8dc63f;fill-opacity:1;stroke-width:0.0803663"
     d="M 45.292969,820.29102 -6.25,820.29688 v 19.46484 l 51.542969,0.006 9.5,-9.79688 z"
     transform="matrix(-8.2617419,0,0,-18.740482,642.91837,15737.499)"
     id="path2050-1-8-2-3" /></g><g
   id="Ebene_1-6-1-1-3"
   transform="matrix(-0.12103985,0,0,-0.05336042,269.92752,227.40457)"
   style="fill:#8dc63f;fill-opacity:1"><path
     inkscape:connector-curvature="0"
     style="fill:#8dc63f;fill-opacity:1;stroke-width:0.0803663"
     d="M 105.29297,779.29102 81,779.29297 v 19.47265 l 24.29297,0.002 9.5,-9.79688 z"
     transform="matrix(-8.2617419,0,0,-18.740482,1138.6229,14969.139)"
     id="path2050-1-5-7-3" /></g><g
   id="Ebene_1-6-4-86"
   transform="matrix(0.12103985,0,0,-0.05336042,316.06164,184.27911)"
   style="fill:#27aae1;fill-opacity:1"><path
     d="M 190.23083,183.4491 268.71726,-0.1626778 909.71671,1.5393466e-5 V 364.71876 l -640.99945,0.11503 z"
     id="path2050-1-7-0"
     inkscape:connector-curvature="0"
     sodipodi:nodetypes="cccccc"
     style="fill:#27aae1;fill-opacity:1" /></g><g
   id="Ebene_1-6-1-6-4"
   transform="matrix(-0.12103985,0,0,-0.05336042,454.94913,210.67529)"
   style="fill:#27aae1;fill-opacity:1"><path
     inkscape:connector-curvature="0"
     style="fill:#27aae1;fill-opacity:1;stroke-width:0.0803663"
     d="M 105.29297,779.29102 81,779.29297 v 19.47265 l 24.29297,0.002 9.5,-9.79688 z"
     transform="matrix(-8.2617419,0,0,-18.740482,1138.6229,14969.139)"
     id="path2050-1-5-3-88" /></g><g
   id="Ebene_1-6-9-1-5-8"
   transform="matrix(-0.12103985,0,0,-0.05336042,419.55252,210.67525)"
   style="fill:#27aae1;fill-opacity:1"><path
     inkscape:connector-curvature="0"
     style="fill:#27aae1;fill-opacity:1;stroke-width:0.0803663"
     d="M 45.292969,820.29102 -6.25,820.29688 v 19.46484 l 51.542969,0.006 9.5,-9.79688 z"
     transform="matrix(-8.2617419,0,0,-18.740482,642.91837,15737.499)"
     id="path2050-1-8-7-9-9" /></g><g
   id="Ebene_1-6-9-6-7"
   transform="matrix(0.12103985,0,0,-0.05336042,326.958,238.36295)"
   style="fill:#27aae1;fill-opacity:1"><path
     inkscape:connector-curvature="0"
     style="fill:#27aae1;fill-opacity:1;stroke-width:0.0803663"
     d="M 45.292969,820.29102 -6.25,820.29688 v 19.46484 l 51.542969,0.006 9.5,-9.79688 z"
     transform="matrix(-8.2617419,0,0,-18.740482,642.91837,15737.499)"
     id="path2050-1-8-2-7" /></g><g
   id="Ebene_1-6-1-1-6"
   transform="matrix(-0.12103985,0,0,-0.05336042,425.42752,265.40457)"
   style="fill:#27aae1;fill-opacity:1"><path
     inkscape:connector-curvature="0"
     style="fill:#27aae1;fill-opacity:1;stroke-width:0.0803663"
     d="M 105.29297,779.29102 81,779.29297 v 19.47265 l 24.29297,0.002 9.5,-9.79688 z"
     transform="matrix(-8.2617419,0,0,-18.740482,1138.6229,14969.139)"
     id="path2050-1-5-7-4" /></g><g
   id="Ebene_1-6-4-8-3"
   transform="matrix(-0.12103985,0,0,-0.05336042,288.95982,358.63315)"
   style="fill:#8dc63f;fill-opacity:1"><path
     d="M 190.23083,183.4491 268.71726,-0.1626778 909.71671,1.5393466e-5 V 364.71876 l -640.99945,0.11503 z"
     id="path2050-1-7-5-0"
     inkscape:connector-curvature="0"
     sodipodi:nodetypes="cccccc"
     style="fill:#8dc63f;fill-opacity:1" /></g><g
   id="Ebene_1-6-1-6-7-3"
   transform="matrix(-0.12103985,0,0,-0.05336042,234.81333,386.71724)"
   style="fill:#8dc63f;fill-opacity:1"><path
     inkscape:connector-curvature="0"
     style="fill:#8dc63f;fill-opacity:1;stroke-width:0.0803663"
     d="M 105.29297,779.29102 81,779.29297 v 19.47265 l 24.29297,0.002 9.5,-9.79688 z"
     transform="matrix(-8.2617419,0,0,-18.740482,1138.6229,14969.139)"
     id="path2050-1-5-3-4-0" /></g><g
   id="Ebene_1-6-9-1-5-1-9"
   transform="matrix(-0.12103985,0,0,-0.05336042,298.43833,386.71721)"
   style="fill:#8dc63f;fill-opacity:1"><path
     inkscape:connector-curvature="0"
     style="fill:#8dc63f;fill-opacity:1;stroke-width:0.0803663"
     d="M 45.292969,820.29102 -6.25,820.29688 v 19.46484 l 51.542969,0.006 9.5,-9.79688 z"
     transform="matrix(-8.2617419,0,0,-18.740482,642.91837,15737.499)"
     id="path2050-1-8-7-9-8-2" /></g><g
   id="Ebene_1-6-9-6-5-5"
   transform="matrix(0.12103985,0,0,-0.05336042,167.84381,330.30051)"
   style="fill:#8dc63f;fill-opacity:1"><path
     inkscape:connector-curvature="0"
     style="fill:#8dc63f;fill-opacity:1;stroke-width:0.0803663"
     d="M 45.292969,820.29102 -6.25,820.29688 v 19.46484 l 51.542969,0.006 9.5,-9.79688 z"
     transform="matrix(-8.2617419,0,0,-18.740482,642.91837,15737.499)"
     id="path2050-1-8-2-9-4" /></g><g
   id="Ebene_1-6-1-6-75-0"
   transform="matrix(-0.12103985,0,0,-0.05336042,267.31333,301.96722)"
   style="fill:#8dc63f;fill-opacity:1"><path
     inkscape:connector-curvature="0"
     style="fill:#8dc63f;fill-opacity:1;stroke-width:0.0803663"
     d="M 105.29297,779.29102 81,779.29297 v 19.47265 l 24.29297,0.002 9.5,-9.79688 z"
     transform="matrix(-8.2617419,0,0,-18.740482,1138.6229,14969.139)"
     id="path2050-1-5-3-3-5" /></g><g
   id="Ebene_1-6-4-8-9"
   transform="matrix(-0.12103985,0,0,-0.05336042,445.95981,394.63315)"
   style="fill:#27aae1;fill-opacity:1"><path
     d="M 190.23083,183.4491 268.71726,-0.1626778 909.71671,1.5393466e-5 V 364.71876 l -640.99945,0.11503 z"
     id="path2050-1-7-5-4"
     inkscape:connector-curvature="0"
     sodipodi:nodetypes="cccccc"
     style="fill:#27aae1;fill-opacity:1" /></g><g
   id="Ebene_1-6-1-6-7-6"
   transform="matrix(-0.12103985,0,0,-0.05336042,391.81333,422.71724)"
   style="fill:#27aae1;fill-opacity:1"><path
     inkscape:connector-curvature="0"
     style="fill:#27aae1;fill-opacity:1;stroke-width:0.0803663"
     d="M 105.29297,779.29102 81,779.29297 v 19.47265 l 24.29297,0.002 9.5,-9.79688 z"
     transform="matrix(-8.2617419,0,0,-18.740482,1138.6229,14969.139)"
     id="path2050-1-5-3-4-9" /></g><g
   id="Ebene_1-6-9-1-5-1-2"
   transform="matrix(-0.12103985,0,0,-0.05336042,455.43832,422.71721)"
   style="fill:#27aae1;fill-opacity:1"><path
     inkscape:connector-curvature="0"
     style="fill:#27aae1;fill-opacity:1;stroke-width:0.0803663"
     d="M 45.292969,820.29102 -6.25,820.29688 v 19.46484 l 51.542969,0.006 9.5,-9.79688 z"
     transform="matrix(-8.2617419,0,0,-18.740482,642.91837,15737.499)"
     id="path2050-1-8-7-9-8-24" /></g><g
   id="Ebene_1-6-9-6-5-7"
   transform="matrix(0.12103985,0,0,-0.05336042,324.84381,366.30051)"
   style="fill:#27aae1;fill-opacity:1"><path
     inkscape:connector-curvature="0"
     style="fill:#27aae1;fill-opacity:1;stroke-width:0.0803663"
     d="M 45.292969,820.29102 -6.25,820.29688 v 19.46484 l 51.542969,0.006 9.5,-9.79688 z"
     transform="matrix(-8.2617419,0,0,-18.740482,642.91837,15737.499)"
     id="path2050-1-8-2-9-7" /></g><g
   id="Ebene_1-6-1-6-75-5"
   transform="matrix(-0.12103985,0,0,-0.05336042,424.31333,337.96722)"
   style="fill:#27aae1;fill-opacity:1"><path
     inkscape:connector-curvature="0"
     style="fill:#27aae1;fill-opacity:1;stroke-width:0.0803663"
     d="M 105.29297,779.29102 81,779.29297 v 19.47265 l 24.29297,0.002 9.5,-9.79688 z"
     transform="matrix(-8.2617419,0,0,-18.740482,1138.6229,14969.139)"
     id="path2050-1-5-3-3-4" /></g></svg>
